# xmcd
# 
# Track frame offsets:
#     150
#     16109
#     32168
#     49019
#     66041
#     82242
#     98635
#     116506
#     132274
#     148275
#     163806
# 
# Disc length: 2407
# 
# Revision: 0
# Processed by: cddbd v1.5.2PL0 Copyright (c) Steve Scherf et al.
# Submitted via: fre:ac v1.0.27
# 
DISCID=9509650b
DTITLE=Malu - Si
DYEAR=0
DGENRE=
TTITLE0=01. A Prueba de Ti
TTITLE1=02. Te Voy a Olvidar
TTITLE2=03. Me Fui
TTITLE3=04. Desaparecer
TTITLE4=05. Que Mas Me Da
TTITLE5=06. Angel Caido
TTITLE6=07. Deshazte de Mi
TTITLE7=08. Ni un Paso Atras
TTITLE8=09. Lo Mismo Que Yo
TTITLE9=10. Ojala
TTITLE10=11. Desaparecer  Version Acustica
EXTD=
EXTT0=
EXTT1=
EXTT2=
EXTT3=
EXTT4=
EXTT5=
EXTT6=
EXTT7=
EXTT8=
EXTT9=
EXTT10=
PLAYORDER=
